HIERARCHY
ROOT Hips
{
	OFFSET 53.187302 -10.479916 95.914001
	CHANNELS 6 Xposition Yposition Zposition Xrotation Yrotation Zrotation
	JOINT spine
	{
		OFFSET 0.000000 -0.467661 8.132492
		CHANNELS 3 Xrotation Yrotation Zrotation
		JOINT spine1
		{
			OFFSET 0.000000 -0.000002 10.349800
			CHANNELS 3 Xrotation Yrotation Zrotation
			JOINT spine2
			{
				OFFSET 0.000000 -0.000001 9.916992
				CHANNELS 3 Xrotation Yrotation Zrotation
				JOINT Neck
				{
					OFFSET 0.000000 -1.213904 25.461006
					CHANNELS 3 Xrotation Yrotation Zrotation
					JOINT Head
					{
						OFFSET 0.000000 -0.000001 7.692444
						CHANNELS 3 Xrotation Yrotation Zrotation
						End Site
						{
							OFFSET 0.000000 6.140627 18.619995
						}
					}
				}
				JOINT RightShoulder
				{
					OFFSET -4.175751 0.581443 10.709602
					CHANNELS 3 Xrotation Yrotation Zrotation
					JOINT RightArm
					{
						OFFSET 0.000000 -0.000002 14.046600
						CHANNELS 3 Xrotation Yrotation Zrotation
						JOINT RightArmRoll
						{
							OFFSET 0.000000 -0.000002 7.090988
							CHANNELS 3 Xrotation Yrotation Zrotation
							JOINT RightForeArm
							{
								OFFSET 0.000000 -0.000003 20.653503
								CHANNELS 3 Xrotation Yrotation Zrotation
								JOINT RightForeArmRoll
								{
									OFFSET 0.000000 -0.000002 7.957184
									CHANNELS 3 Xrotation Yrotation Zrotation
									JOINT RightHand
									{
										OFFSET 0.000000 -0.000002 15.968307
										CHANNELS 3 Xrotation Yrotation Zrotation
										End Site
										{
											OFFSET 0.000000 0.000000 0.100006
										}
									}
								}
							}
						}
					}
				}
				JOINT LeftShoulder
				{
					OFFSET 4.175751 0.581443 10.709602
					CHANNELS 3 Xrotation Yrotation Zrotation
					JOINT LeftArm
					{
						OFFSET 0.000000 -0.000002 14.046600
						CHANNELS 3 Xrotation Yrotation Zrotation
						JOINT LeftArmRoll
						{
							OFFSET 0.000000 -0.000002 7.090988
							CHANNELS 3 Xrotation Yrotation Zrotation
							JOINT LeftForeArm
							{
								OFFSET 0.000000 -0.000003 20.653503
								CHANNELS 3 Xrotation Yrotation Zrotation
								JOINT LeftForeArmRoll
								{
									OFFSET 0.000000 -0.000002 7.957184
									CHANNELS 3 Xrotation Yrotation Zrotation
									JOINT LeftHand
									{
										OFFSET 0.000000 -0.000002 15.968307
										CHANNELS 3 Xrotation Yrotation Zrotation
										End Site
										{
											OFFSET 0.000000 0.000000 0.100006
										}
									}
								}
							}
						}
					}
				}
			}
		}
	}
	JOINT RightUpLeg
	{
		OFFSET -7.208340 1.108840 -1.321823
		CHANNELS 3 Xrotation Yrotation Zrotation
		JOINT RightUpLegRoll
		{
			OFFSET 0.000000 -0.000003 18.723801
			CHANNELS 3 Xrotation Yrotation Zrotation
			JOINT RightLeg
			{
				OFFSET 0.000000 0.000004 -23.186600
				CHANNELS 3 Xrotation Yrotation Zrotation
				JOINT RightLegRoll
				{
					OFFSET 0.000000 -0.000004 23.262398
					CHANNELS 3 Xrotation Yrotation Zrotation
					JOINT RightFoot
					{
						OFFSET 0.000000 -0.000004 19.362099
						CHANNELS 3 Xrotation Yrotation Zrotation
						JOINT RightToeBase
						{
							OFFSET 0.000000 -0.000002 16.185699
							CHANNELS 3 Xrotation Yrotation Zrotation
							End Site
							{
								OFFSET 0.006859 0.903520 7.838623
							}
						}
					}
				}
			}
		}
	}
	JOINT LeftUpLeg
	{
		OFFSET 7.208340 1.108840 -1.321823
		CHANNELS 3 Xrotation Yrotation Zrotation
		JOINT LeftUpLegRoll
		{
			OFFSET 0.000000 -0.000003 18.723900
			CHANNELS 3 Xrotation Yrotation Zrotation
			JOINT LeftLeg
			{
				OFFSET 0.000000 -0.000004 23.186501
				CHANNELS 3 Xrotation Yrotation Zrotation
				JOINT LeftLegRoll
				{
					OFFSET 0.000000 -0.000004 23.477493
					CHANNELS 3 Xrotation Yrotation Zrotation
					JOINT LeftFoot
					{
						OFFSET 0.000000 -0.000004 19.147003
						CHANNELS 3 Xrotation Yrotation Zrotation
						JOINT LeftToeBase
						{
							OFFSET 0.000000 -0.000002 16.185699
							CHANNELS 3 Xrotation Yrotation Zrotation
							End Site
							{
								OFFSET -0.030746 0.903519 7.838623
							}
						}
					}
				}
			}
		}
	}
}
MOTION
Frames: 5
Frame Time: 0.041667
53.197105 -8.346293 96.022408 -3.889580 0.755265 -0.553619 -1.473022 -0.365657 0.064278 1.065647 -0.732793 0.113540 2.710761 -0.731376 0.132173 11.014596 5.651072 -3.877034 -3.854177 -5.411687 -3.864447 -16.034574 -58.723125 -18.942032 -44.099260 -119.383237 -22.772558 -0.000003 0.000002 0.000002 0.061061 -7.601369 -0.613037 -0.000003 -0.000008 -3.000003 -5.000196 -7.999023 0.000122 -19.117334 63.502605 22.587010 -49.088945 114.341991 37.149679 -0.000000 -0.000007 0.000004 0.071111 8.659794 1.071497 -0.000002 -0.000014 3.029081 -5.000234 7.998925 -0.000157 -2.641732 -172.615778 3.219440 179.999991 -0.000005 -1.019004 167.489708 -0.677522 -0.656329 -0.000007 0.000004 0.110540 69.884228 6.397669 3.394192 25.456853 -7.355621 -0.000004 -1.647604 171.847327 -2.269467 -0.000020 -0.000003 -0.905132 -13.187655 1.117674 0.804113 0.000005 0.000001 -0.092789 71.451244 -5.927287 -4.596853 25.459383 7.355622 -0.003622 
53.201305 -8.347786 96.024895 -3.887938 0.755381 -0.553615 -1.474272 -0.365569 0.064193 1.063798 -0.733974 0.114144 2.708911 -0.732549 0.132607 11.020578 5.669329 -3.880761 -3.854805 -5.420363 -3.868448 -16.028608 -58.703003 -18.934611 -44.072970 -119.394480 -22.736209 -0.000004 0.000001 0.000000 0.060440 -7.592227 -0.612594 -0.000001 -0.000008 -3.000002 -5.000194 -7.999023 0.000121 -19.112707 63.514619 22.581666 -49.094966 114.337701 37.151158 -0.000000 -0.000006 0.000003 0.071109 8.658154 1.071789 0.000003 -0.000014 3.029100 -5.000232 7.998924 -0.000157 -2.643409 -172.613784 3.220443 179.999991 -0.000005 -1.019004 167.489516 -0.678494 -0.655551 -0.000006 0.000004 0.110539 69.883265 6.397283 3.394080 25.456853 -7.355619 -0.000003 -1.649964 171.848338 -2.268072 -0.000020 -0.000003 -0.905132 -13.187453 1.117197 0.804003 0.000006 0.000001 -0.092798 71.450397 -5.927300 -4.597100 25.459385 7.355620 -0.003623 
53.200905 -8.346824 96.024101 -3.886209 0.755531 -0.553616 -1.475617 -0.365439 0.064077 1.061817 -0.735158 0.114749 2.706942 -0.733724 0.133053 11.027660 5.687330 -3.884627 -3.856331 -5.428666 -3.872552 -16.022418 -58.682895 -18.926902 -44.048091 -119.405094 -22.700735 -0.000004 0.000001 0.000001 0.059524 -7.582517 -0.612197 -0.000001 -0.000008 -3.000002 -5.000195 -7.999023 0.000122 -19.107970 63.526681 22.576190 -49.102974 114.332907 37.154491 -0.000001 -0.000007 0.000001 0.071110 8.656365 1.072191 -0.000000 -0.000015 3.029140 -5.000232 7.998925 -0.000155 -2.645135 -172.612787 3.221565 179.999991 -0.000005 -1.019005 167.489311 -0.679481 -0.655772 -0.000007 0.000004 0.110540 69.882309 6.396897 3.393764 25.456856 -7.355622 -0.000003 -1.652383 171.849335 -2.266637 -0.000020 -0.000003 -0.905132 -13.187150 1.116703 0.803888 0.000005 0.000001 -0.092812 71.449468 -5.927311 -4.597249 25.459387 7.355622 -0.003622 
53.199406 -8.344486 96.025589 -3.884418 0.755706 -0.553618 -1.477039 -0.365278 0.063938 1.059758 -0.736345 0.115357 2.704873 -0.734903 0.133505 11.035344 5.705159 -3.888555 -3.858500 -5.436693 -3.876746 -16.016082 -58.662821 -18.919026 -44.022318 -119.416541 -22.663541 -0.000001 0.000002 0.000002 0.058397 -7.572399 -0.611826 -0.000004 -0.000007 -3.000000 -5.000193 -7.999022 0.000122 -19.103156 63.538736 22.570638 -49.111171 114.328180 37.157793 -0.000000 -0.000006 0.000004 0.071110 8.654464 1.072675 -0.000000 -0.000015 3.029180 -5.000235 7.998926 -0.000155 -2.646912 -172.610819 3.222685 179.999991 -0.000006 -1.019004 167.489202 -0.681427 -0.656205 -0.000006 0.000004 0.110539 69.881243 6.396506 3.393456 25.456853 -7.355623 -0.000002 -1.654866 171.850360 -2.265193 -0.000020 -0.000004 -0.905132 -13.186747 1.116208 0.803770 0.000006 0.000000 -0.092829 71.448505 -5.927290 -4.597496 25.459383 7.355619 -0.003622 
53.201103 -8.344738 96.025192 -3.882584 0.755894 -0.553621 -1.478489 -0.365099 0.063787 1.057649 -0.737532 0.115964 2.702763 -0.736084 0.133962 11.043430 5.722893 -3.892542 -3.861026 -5.444569 -3.880975 -16.009627 -58.642741 -18.911016 -43.996558 -119.428002 -22.626059 -0.000004 0.000001 0.000000 0.057149 -7.562038 -0.611479 -0.000002 -0.000007 -3.000001 -5.000191 -7.999024 0.000123 -19.098273 63.550798 22.565002 -49.117851 114.324184 37.159306 0.000001 -0.000006 0.000002 0.071112 8.652504 1.073206 0.000001 -0.000014 3.029231 -5.000235 7.998925 -0.000156 -2.648700 -172.608825 3.223844 179.999991 -0.000006 -1.019004 167.489107 -0.682401 -0.655411 -0.000006 0.000004 0.110540 69.880280 6.396120 3.393044 25.456854 -7.355619 -0.000004 -1.657356 171.851371 -2.263729 -0.000020 -0.000004 -0.905132 -13.186346 1.115703 0.803652 0.000006 0.000001 -0.092848 71.447467 -5.927297 -4.597753 25.459387 7.355621 -0.003622 
